<?xml version="1.0" standalone="no"?><!DOCTYPE svg PUBLIC "-//W3C//DTD SVG 1.1//EN" "http://www.w3.org/Graphics/SVG/1.1/DTD/svg11.dtd"><svg t="1732168089912" class="icon" viewBox="0 0 1024 1024" version="1.1" xmlns="http://www.w3.org/2000/svg" p-id="12646" xmlns:xlink="http://www.w3.org/1999/xlink" width="256" height="256"><path d="M512 512m-486.4 0a486.4 486.4 0 1 0 972.8 0 486.4 486.4 0 1 0-972.8 0Z" fill="#FFFFFF" p-id="12647"></path><path d="M814.4128 310.4768l-15.7696 25.7024c-29.5168 47.9744-58.8288 96-88.6784 143.872s-56.9344 96.6144-85.0176 145.152c-15.9744 27.5968-31.4368 55.4752-47.744 82.8416-20.096 33.7664-49.792 54.3488-87.936 62.8736-10.5728 2.3552-21.2992 2.2016-32 2.176l-122.5216-0.1024h-2.6368l1.8944-3.1488c41.1648-66.816 82.4832-133.5808 123.392-200.576 14.6688-23.9616 28.3648-48.5376 42.3936-72.8832 20.0704-34.816 39.9872-69.76 60.0832-104.576 5.2992-9.7536 11.1616-19.2 17.536-28.3136 20.1216-27.0592 47.0528-43.776 79.8976-50.816 6.912-1.4848 14.0032-2.2272 21.0944-2.2016 44.5184 0.1024 89.0368 0.128 133.5552 0.1024l2.4576-0.1024zM397.056 566.4L230.4 307.2h3.1744c63.616 0 127.232 0.0512 190.848 0.128a68.9664 68.9664 0 0 1 43.2128 15.0528c15.3088 11.5712 25.344 28.928 27.7248 48.0512a68.5312 68.5312 0 0 1-6.5536 41.3696c-5.376 10.5472-11.3408 20.7872-17.3824 30.9248-22.528 38.016-45.1584 76.0064-67.84 113.9456-1.92 3.2768-4.1728 6.2976-6.5024 9.728z" fill="#24BE48" p-id="12648"></path></svg>