<svg t="1734431265145" class="icon" viewBox="0 0 1024 1024" version="1.1" xmlns="http://www.w3.org/2000/svg" p-id="26462" width="256" height="256"><path d="M512 860c-192.2 0-348-155.8-348-348s155.8-348 348-348 348 155.8 348 348c0 116-116 154.7-232 154.7s-116 38.7-77.3 77.3c38.6 38.6 176.8 116-38.7 116z m212.6-348c20.7 0 39.9-11.1 50.2-29 10.4-17.9 10.4-40.1 0-58s-29.5-29-50.2-29c-32 0-58 26-58 58s26 58 58 58zM608.7 357.3c20.7 0 39.9-11.1 50.2-29 10.4-17.9 10.4-40.1 0-58s-29.5-29-50.2-29c-32 0-58 26-58 58 0 32.1 25.9 58 58 58z m-193.4 0c20.7 0 39.9-11.1 50.2-29 10.4-17.9 10.4-40.1 0-58s-29.5-29-50.2-29c-32 0-58 26-58 58 0 32.1 26 58 58 58zM299.4 512c20.7 0 39.9-11.1 50.2-29 10.4-17.9 10.4-40.1 0-58s-29.5-29-50.2-29c-32 0-58 26-58 58s25.9 58 58 58z m0 0" fill="#FFC152" p-id="26463"></path><path d="M665.4 455a59.4 59.4 0 1 0 118.8 0 59.4 59.4 0 1 0-118.8 0z" fill="#FF6994" p-id="26464"></path><path d="M550.2 301.4a59.4 59.4 0 1 0 118.8 0 59.4 59.4 0 1 0-118.8 0zM354.6 297.8a59.4 59.4 0 1 0 118.8 0 59.4 59.4 0 1 0-118.8 0zM239.4 455a59.4 59.4 0 1 0 118.8 0 59.4 59.4 0 1 0-118.8 0z" fill="#FAFAF2" p-id="26465"></path></svg>