<svg t="1734431563014" class="icon" viewBox="0 0 1024 1024" version="1.1" xmlns="http://www.w3.org/2000/svg" p-id="44331" width="256" height="256"><path d="M710.309859 758.683042l16.831099 34.513127a25.6 25.6 0 0 1-46.007888 22.441465L664.301972 781.124507a25.6 25.6 0 1 1 46.007887-22.441465z m109.005521-118.394591l33.575662 18.60507a25.6 25.6 0 1 1-24.80676 44.781972l-33.590085-18.60507a25.6 25.6 0 0 1 24.806761-44.781972z m74.766423-160.263212a25.6 25.6 0 1 1 0 51.185578H855.689014a25.6 25.6 0 1 1 0-51.2h38.392789zM182.15662 482.967437a25.6 25.6 0 1 1 4.470986 50.998084l-38.248564 3.346028a25.6 25.6 0 1 1-4.470986-50.998084z m-22.859719-164.243831a25.6 25.6 0 0 1 34.960226-9.374648l33.243943 19.210817a25.6 25.6 0 0 1-25.585577 44.32045l-33.258366-19.181971a25.6 25.6 0 0 1-9.374648-34.974648z m131.966198-145.566648a25.6 25.6 0 0 1 35.10445 8.768901l19.773296 32.897803a25.6 25.6 0 1 1-43.873352 26.364394l-19.758873-32.897802a25.6 25.6 0 0 1 8.740056-35.133296z" fill="#CAD1DB" p-id="44332"></path><path d="M562.897127 416.868958c92.722479 51.401915 126.226028 168.238873 74.824112 260.961352l-86.866929 156.700845c-51.387493 92.736901-168.224451 126.226028-260.94693 74.824113-92.736901-51.387493-126.226028-168.224451-74.838535-260.94693l86.86693-156.700845c51.401915-92.736901 168.238873-126.226028 260.961352-74.838535z m-55.844057 100.741408c-43.267606-23.984676-97.784789-8.36507-121.783887 34.916958l-74.449127 134.31707a89.578366 89.578366 0 1 0 156.700845 86.86693l74.449127-134.31707c23.984676-43.267606 8.36507-97.799211-34.902535-121.783888z" fill="#3DE6F5" p-id="44333"></path><path d="M554.344563 573.295775c3.576789 22.859718 0.96631 42.171493-7.831436 57.906479a190.954366 190.954366 0 0 1-89.088-24.056789c-92.736901-51.387493-126.226028-168.224451-74.838535-260.94693l86.866929-156.700845c51.401915-92.736901 168.224451-126.226028 260.961352-74.838535 92.722479 51.401915 126.226028 168.238873 74.824113 260.961352L718.372056 532.335775a191.141859 191.141859 0 0 1-56.868056 63.574535c2.653746-45.863662-10.600563-84.617014-31.224789-116.606197a233.500845 233.500845 0 0 0-0.96631 1.211493c1.442254-1.961465 2.797972-4.03831 4.081578-6.158423l1.644169-2.841239 74.449127-134.317071a89.578366 89.578366 0 0 0-155.042254-89.708169l-1.658591 2.84124-74.449127 134.31707c-23.984676 43.267606-8.350648 97.784789 34.916958 121.783887 23.797183 21.604958 37.498592 43.887775 41.104225 66.862874z" fill="#0066FF" p-id="44334"></path></svg>