<svg t="1734430930947" class="icon" viewBox="0 0 1041 1024" version="1.1" xmlns="http://www.w3.org/2000/svg" p-id="3964" width="256" height="256"><path d="M293.102933 710.2464s-260.608-114.1248 0-539.477333c0 0 24.644267 165.9904 75.195734 207.479466 0 0 76.5952-207.496533 172.509866-207.496533 0 0 67.0208 20.753067 8.840534-165.9904 0 0 77.226667 41.489067 108.0832 197.12 0 0 21.026133 51.882667 0 155.613867 0 0 137.898667-62.242133 136.2432-238.626134 0 0 240.298667 311.261867 0.017066 591.377067-156.4672 102.536533-323.2768 104.055467-500.906666 0z" fill="#FBB713" p-id="3965"></path><path d="M555.588267 169.386667c10.359467 24.4224 19.797333 53.623467 26.8288 88.9856 0 0 21.026133 51.882667 0 155.630933 0 0 39.7824-18.2272 76.356266-62.225067 19.0976-99.84-1.041067-149.896533-1.041066-149.896533C626.858667 46.250667 549.649067 4.7616 549.649067 4.7616c39.150933 125.6448 21.6064 157.320533 5.9392 164.625067zM292.9664 434.7392s17.646933-47.7184 46.574933-97.399467c-31.112533-64.034133-46.4384-166.587733-46.4384-166.587733-26.094933 42.581333-46.762667 81.902933-63.1808 118.442667 11.9808 51.712 32.853333 120.763733 63.044267 145.544533zM793.975467 118.869333c0.512 54.084267-12.151467 97.314133-29.883734 131.4304 53.179733 104.584533 117.077333 302.813867-25.565866 491.707734a533.230933 533.230933 0 0 0 55.466666-31.744c240.298667-280.132267 0-591.394133 0-591.394134z" fill="#020403" opacity=".35" p-id="3966"></path><path d="M305.117867 682.888533c-3.857067 0-7.748267-1.28-10.9568-3.925333-54.101333-44.4416-78.6944-200.635733-81.322667-218.299733a17.2544 17.2544 0 0 1 34.167467-5.085867c6.587733 44.373333 31.863467 166.161067 69.0688 196.7104a17.2544 17.2544 0 0 1-10.9568 30.600533z" fill="#FFFFFF" p-id="3967"></path><path d="M399.240533 763.170133s-147.268267-64.477867 0-304.8448c0 0 13.9264 93.815467 42.478934 117.248 0 0 43.281067-117.248 97.4848-117.248 0 0 37.870933 11.7248 4.983466-93.781333 0 0 43.639467 23.432533 61.0816 111.377067 0 0 11.8784 29.303467 0 87.927466 0 0 77.909333-35.157333 76.970667-134.826666 0 0 135.799467 175.872 0.017067 334.148266-88.405333 57.941333-182.664533 58.794667-283.016534 0z" fill="#020403" opacity=".25" p-id="3968"></path><path d="M415.778133 755.6608s-109.7728-48.059733 0-227.2256c0 0 10.3936 69.905067 31.675734 87.381333 0 0 32.256-87.381333 72.6528-87.381333 0 0 28.228267 8.738133 3.720533-69.922133 0 0 32.529067 17.476267 45.533867 83.029333 0 0 8.8576 21.845333 0 65.536 0 0 58.077867-26.2144 57.378133-100.488533 0 0 101.2224 131.072 0.017067 249.070933-65.911467 43.195733-136.157867 43.8272-210.978134 0z" fill="#FF3A2F" p-id="3969"></path><path d="M522.786133 528.6912c3.413333 9.045333 6.485333 19.524267 8.9088 31.675733 0 0 8.8576 21.845333 0 65.553067 0 0 23.586133-10.734933 40.516267-37.717333 3.310933-30.976-2.850133-46.660267-2.850133-46.660267-13.0048-65.536-45.533867-83.029333-45.533867-83.029333 19.694933 63.1808 5.358933 69.973333-1.024 70.178133zM626.756267 506.589867c0.221867 24.610133-6.058667 43.861333-14.472534 58.709333 22.237867 47.837867 43.5712 131.362133-23.1936 209.2032-0.9728 0.631467-1.962667 1.041067-2.935466 1.655467 13.687467-5.2224 27.255467-11.758933 40.6016-20.497067 101.205333-117.981867 0-249.070933 0-249.070933zM409.787733 634.658133s8.328533-22.4768 21.777067-44.6464c-10.581333-26.658133-15.786667-61.576533-15.786667-61.576533a429.226667 429.226667 0 0 0-29.5936 56.746667c5.256533 19.456 13.090133 40.8576 23.6032 49.493333z" fill="#020403" opacity=".35" p-id="3970"></path><path d="M434.5856 754.210133a8.584533 8.584533 0 0 1-3.447467-0.733866c-0.750933-0.341333-75.52-34.474667-47.701333-142.336a8.6528 8.6528 0 0 1 16.725333 4.3008c-24.064 93.184 35.396267 121.105067 37.9392 122.231466a8.6528 8.6528 0 0 1-3.515733 16.5376zM466.2784 652.032a8.635733 8.635733 0 0 1-8.106667-11.6224c3.515733-9.5232 35.669333-93.0304 80.776534-93.0304a8.635733 8.635733 0 1 1 0 17.237333c-28.023467 0-56.7296 60.552533-64.5632 81.7664a8.635733 8.635733 0 0 1-8.106667 5.632z" fill="#FFFFFF" p-id="3971"></path><path d="M31.1808 1015.6032l1009.2544-240.298667-26.436267-111.035733L4.744533 904.567467l26.436267 111.035733z" fill="#142A3B" p-id="3972"></path><path d="M691.831467 863.675733l80.930133-19.285333 9.352533-28.7232-161.160533-52.4288-137.301333 32.682667 208.1792 67.754666zM438.084267 915.114667l131.669333-31.351467 3.345067-10.257067-185.002667-60.2112-151.842133 36.164267L438.101333 915.114667z" fill="#020403" opacity=".35" p-id="3973"></path><path d="M1013.998933 1015.6032L4.744533 775.304533l26.436267-111.035733 1009.2544 240.298667-26.436267 111.035733z" fill="#142A3B" p-id="3974"></path></svg>