<svg t="1734431319893" class="icon" viewBox="0 0 1024 1024" version="1.1" xmlns="http://www.w3.org/2000/svg" p-id="28570" width="256" height="256"><path d="M926.464 487.6288h48.7936v48.7424h-48.7936zM926.464 438.8352h48.7936v48.7936h-48.7936zM926.464 390.0928h48.7936v48.7424h-48.7936zM877.7216 585.1648h48.7424v48.7424h-48.7424zM877.7216 536.3712h48.7424v48.7936h-48.7424z" fill="#012777" p-id="28571"></path><path d="M877.7216 487.6288h48.7424v48.7424h-48.7424zM877.7216 438.8352h48.7424v48.7936h-48.7424zM877.7216 390.0928h48.7424v48.7424h-48.7424z" fill="#375AA4" p-id="28572"></path><path d="M877.7216 341.3504h48.7424v48.7424h-48.7424zM877.7216 292.5568h48.7424v48.7936h-48.7424zM828.928 633.9072h48.7936v48.7424h-48.7936z" fill="#012777" p-id="28573"></path><path d="M828.928 585.1648h48.7936v48.7424h-48.7936zM828.928 536.3712h48.7936v48.7936h-48.7936zM828.928 487.6288h48.7936v48.7424h-48.7936zM828.928 438.8352h48.7936v48.7936h-48.7936zM828.928 390.0928h48.7936v48.7424h-48.7936zM828.928 341.3504h48.7936v48.7424h-48.7936zM828.928 292.5568h48.7936v48.7936h-48.7936z" fill="#A2D8EA" p-id="28574"></path><path d="M828.928 243.8144h48.7936v48.7424h-48.7936zM780.1856 780.1856h48.7424v48.7424h-48.7424z" fill="#012777" p-id="28575"></path><path d="M780.1856 731.4432h48.7424v48.7424h-48.7424zM780.1856 682.6496h48.7424v48.7936h-48.7424zM780.1856 633.9072h48.7424v48.7424h-48.7424zM780.1856 585.1648h48.7424v48.7424h-48.7424zM780.1856 536.3712h48.7424v48.7936h-48.7424zM780.1856 487.6288h48.7424v48.7424h-48.7424zM780.1856 438.8352h48.7424v48.7936h-48.7424zM780.1856 390.0928h48.7424v48.7424h-48.7424zM780.1856 341.3504h48.7424v48.7424h-48.7424zM780.1856 292.5568h48.7424v48.7936h-48.7424zM780.1856 243.8144h48.7424v48.7424h-48.7424z" fill="#012777" p-id="28576"></path><path d="M780.1856 195.072h48.7424v48.7424h-48.7424zM780.1856 146.2784h48.7424v48.7936h-48.7424zM780.1856 97.536h48.7424v48.7424h-48.7424zM731.4432 828.928h48.7424v48.7936h-48.7424z" fill="#012777" p-id="28577"></path><path d="M731.4432 780.1856h48.7424v48.7424h-48.7424z" fill="#DEE6FC" p-id="28578"></path><path d="M731.4432 731.4432h48.7424v48.7424h-48.7424zM731.4432 682.6496h48.7424v48.7936h-48.7424zM731.4432 633.9072h48.7424v48.7424h-48.7424zM731.4432 585.1648h48.7424v48.7424h-48.7424zM731.4432 536.3712h48.7424v48.7936h-48.7424zM731.4432 487.6288h48.7424v48.7424h-48.7424zM731.4432 438.8352h48.7424v48.7936h-48.7424zM731.4432 390.0928h48.7424v48.7424h-48.7424zM731.4432 341.3504h48.7424v48.7424h-48.7424zM731.4432 292.5568h48.7424v48.7936h-48.7424zM731.4432 243.8144h48.7424v48.7424h-48.7424z" fill="#DEE6FC" p-id="28579"></path><path d="M731.4432 195.072h48.7424v48.7424h-48.7424zM731.4432 146.2784h48.7424v48.7936h-48.7424zM731.4432 97.536h48.7424v48.7424h-48.7424z" fill="#DEE6FC" p-id="28580"></path><path d="M731.4432 48.7424h48.7424v48.7936h-48.7424zM682.6496 828.928h48.7936v48.7936h-48.7936z" fill="#012777" p-id="28581"></path><path d="M682.6496 780.1856h48.7936v48.7424h-48.7936z" fill="#DEE6FC" p-id="28582"></path><path d="M682.6496 731.4432h48.7936v48.7424h-48.7936zM682.6496 682.6496h48.7936v48.7936h-48.7936zM682.6496 633.9072h48.7936v48.7424h-48.7936zM682.6496 585.1648h48.7936v48.7424h-48.7936zM682.6496 536.3712h48.7936v48.7936h-48.7936zM682.6496 487.6288h48.7936v48.7424h-48.7936zM682.6496 438.8352h48.7936v48.7936h-48.7936zM682.6496 390.0928h48.7936v48.7424h-48.7936zM682.6496 341.3504h48.7936v48.7424h-48.7936zM682.6496 292.5568h48.7936v48.7936h-48.7936zM682.6496 243.8144h48.7936v48.7424h-48.7936z" fill="#DD75A1" p-id="28583"></path><path d="M682.6496 195.072h48.7936v48.7424h-48.7936zM682.6496 146.2784h48.7936v48.7936h-48.7936z" fill="#DD75A1" p-id="28584"></path><path d="M682.6496 97.536h48.7936v48.7424h-48.7936z" fill="#DEE6FC" p-id="28585"></path><path d="M682.6496 48.7424h48.7936v48.7936h-48.7936zM633.9072 828.928h48.7424v48.7936h-48.7424z" fill="#012777" p-id="28586"></path><path d="M633.9072 780.1856h48.7424v48.7424h-48.7424z" fill="#DEE6FC" p-id="28587"></path><path d="M633.9072 731.4432h48.7424v48.7424h-48.7424zM633.9072 682.6496h48.7424v48.7936h-48.7424zM633.9072 633.9072h48.7424v48.7424h-48.7424z" fill="#DD75A1" p-id="28588"></path><path d="M633.9072 585.1648h48.7424v48.7424h-48.7424zM633.9072 536.3712h48.7424v48.7936h-48.7424zM633.9072 487.6288h48.7424v48.7424h-48.7424zM633.9072 438.8352h48.7424v48.7936h-48.7424zM633.9072 390.0928h48.7424v48.7424h-48.7424zM633.9072 341.3504h48.7424v48.7424h-48.7424zM633.9072 292.5568h48.7424v48.7936h-48.7424z" fill="#012777" p-id="28589"></path><path d="M633.9072 243.8144h48.7424v48.7424h-48.7424z" fill="#DD75A1" p-id="28590"></path><path d="M633.9072 195.072h48.7424v48.7424h-48.7424zM633.9072 146.2784h48.7424v48.7936h-48.7424z" fill="#DD75A1" p-id="28591"></path><path d="M633.9072 97.536h48.7424v48.7424h-48.7424z" fill="#DEE6FC" p-id="28592"></path><path d="M633.9072 48.7424h48.7424v48.7936h-48.7424zM585.1648 780.1856h48.7424v48.7424h-48.7424z" fill="#012777" p-id="28593"></path><path d="M585.1648 731.4432h48.7424v48.7424h-48.7424z" fill="#DEE6FC" p-id="28594"></path><path d="M585.1648 682.6496h48.7424v48.7936h-48.7424z" fill="#DD75A1" p-id="28595"></path><path d="M585.1648 633.9072h48.7424v48.7424h-48.7424z" fill="#012777" p-id="28596"></path><path d="M585.1648 585.1648h48.7424v48.7424h-48.7424zM585.1648 536.3712h48.7424v48.7936h-48.7424zM585.1648 487.6288h48.7424v48.7424h-48.7424zM585.1648 438.8352h48.7424v48.7936h-48.7424zM585.1648 390.0928h48.7424v48.7424h-48.7424zM585.1648 341.3504h48.7424v48.7424h-48.7424zM585.1648 292.5568h48.7424v48.7936h-48.7424z" fill="#DEE6FC" p-id="28597"></path><path d="M585.1648 243.8144h48.7424v48.7424h-48.7424z" fill="#012777" p-id="28598"></path><path d="M585.1648 195.072h48.7424v48.7424h-48.7424z" fill="#DD75A1" p-id="28599"></path><path d="M585.1648 146.2784h48.7424v48.7936h-48.7424z" fill="#DEE6FC" p-id="28600"></path><path d="M585.1648 97.536h48.7424v48.7424h-48.7424zM536.3712 780.1856h48.7936v48.7424h-48.7936z" fill="#012777" p-id="28601"></path><path d="M536.3712 731.4432h48.7936v48.7424h-48.7936z" fill="#DEE6FC" p-id="28602"></path><path d="M536.3712 682.6496h48.7936v48.7936h-48.7936z" fill="#DD75A1" p-id="28603"></path><path d="M536.3712 633.9072h48.7936v48.7424h-48.7936z" fill="#012777" p-id="28604"></path><path d="M536.3712 585.1648h48.7936v48.7424h-48.7936z" fill="#DEE6FC" p-id="28605"></path><path d="M536.3712 536.3712h48.7936v48.7936h-48.7936zM536.3712 487.6288h48.7936v48.7424h-48.7936zM536.3712 438.8352h48.7936v48.7936h-48.7936zM536.3712 390.0928h48.7936v48.7424h-48.7936zM536.3712 341.3504h48.7936v48.7424h-48.7936z" fill="#DD75A1" p-id="28606"></path><path d="M536.3712 292.5568h48.7936v48.7936h-48.7936z" fill="#DEE6FC" p-id="28607"></path><path d="M536.3712 243.8144h48.7936v48.7424h-48.7936z" fill="#012777" p-id="28608"></path><path d="M536.3712 195.072h48.7936v48.7424h-48.7936z" fill="#DD75A1" p-id="28609"></path><path d="M536.3712 146.2784h48.7936v48.7936h-48.7936z" fill="#DEE6FC" p-id="28610"></path><path d="M536.3712 97.536h48.7936v48.7424h-48.7936zM487.6288 731.4432h48.7424v48.7424h-48.7424z" fill="#012777" p-id="28611"></path><path d="M487.6288 682.6496h48.7424v48.7936h-48.7424z" fill="#DEE6FC" p-id="28612"></path><path d="M487.6288 633.9072h48.7424v48.7424h-48.7424z" fill="#012777" p-id="28613"></path><path d="M487.6288 585.1648h48.7424v48.7424h-48.7424z" fill="#DEE6FC" p-id="28614"></path><path d="M487.6288 536.3712h48.7424v48.7936h-48.7424zM487.6288 487.6288h48.7424v48.7424h-48.7424zM487.6288 438.8352h48.7424v48.7936h-48.7424zM487.6288 390.0928h48.7424v48.7424h-48.7424zM487.6288 341.3504h48.7424v48.7424h-48.7424z" fill="#DD75A1" p-id="28615"></path><path d="M487.6288 292.5568h48.7424v48.7936h-48.7424z" fill="#DEE6FC" p-id="28616"></path><path d="M487.6288 243.8144h48.7424v48.7424h-48.7424z" fill="#012777" p-id="28617"></path><path d="M487.6288 195.072h48.7424v48.7424h-48.7424z" fill="#DEE6FC" p-id="28618"></path><path d="M487.6288 146.2784h48.7424v48.7936h-48.7424zM438.8352 731.4432h48.7936v48.7424h-48.7936z" fill="#012777" p-id="28619"></path><path d="M438.8352 682.6496h48.7936v48.7936h-48.7936z" fill="#DEE6FC" p-id="28620"></path><path d="M438.8352 633.9072h48.7936v48.7424h-48.7936z" fill="#DD75A1" p-id="28621"></path><path d="M438.8352 585.1648h48.7936v48.7424h-48.7936z" fill="#012777" p-id="28622"></path><path d="M438.8352 536.3712h48.7936v48.7936h-48.7936z" fill="#DEE6FC" p-id="28623"></path><path d="M438.8352 487.6288h48.7936v48.7424h-48.7936zM438.8352 438.8352h48.7936v48.7936h-48.7936zM438.8352 390.0928h48.7936v48.7424h-48.7936z" fill="#DD75A1" p-id="28624"></path><path d="M438.8352 341.3504h48.7936v48.7424h-48.7936z" fill="#DEE6FC" p-id="28625"></path><path d="M438.8352 292.5568h48.7936v48.7936h-48.7936z" fill="#012777" p-id="28626"></path><path d="M438.8352 243.8144h48.7936v48.7424h-48.7936z" fill="#DD75A1" p-id="28627"></path><path d="M438.8352 195.072h48.7936v48.7424h-48.7936z" fill="#DEE6FC" p-id="28628"></path><path d="M438.8352 146.2784h48.7936v48.7936h-48.7936zM390.0928 682.6496h48.7424v48.7936h-48.7424z" fill="#012777" p-id="28629"></path><path d="M390.0928 633.9072h48.7424v48.7424h-48.7424z" fill="#DEE6FC" p-id="28630"></path><path d="M390.0928 585.1648h48.7424v48.7424h-48.7424z" fill="#012777" p-id="28631"></path><path d="M390.0928 536.3712h48.7424v48.7936h-48.7424z" fill="#DEE6FC" p-id="28632"></path><path d="M390.0928 487.6288h48.7424v48.7424h-48.7424zM390.0928 438.8352h48.7424v48.7936h-48.7424zM390.0928 390.0928h48.7424v48.7424h-48.7424z" fill="#DD75A1" p-id="28633"></path><path d="M390.0928 341.3504h48.7424v48.7424h-48.7424z" fill="#DEE6FC" p-id="28634"></path><path d="M390.0928 292.5568h48.7424v48.7936h-48.7424z" fill="#012777" p-id="28635"></path><path d="M390.0928 243.8144h48.7424v48.7424h-48.7424z" fill="#DEE6FC" p-id="28636"></path><path d="M390.0928 195.072h48.7424v48.7424h-48.7424zM341.3504 877.7216h48.7424v48.7424h-48.7424zM341.3504 828.928h48.7424v48.7936h-48.7424zM341.3504 780.1856h48.7424v48.7424h-48.7424z" fill="#012777" p-id="28637"></path><path d="M341.3504 731.4432h48.7424v48.7424h-48.7424zM341.3504 682.6496h48.7424v48.7936h-48.7424z" fill="#012777" p-id="28638"></path><path d="M341.3504 633.9072h48.7424v48.7424h-48.7424z" fill="#DEE6FC" p-id="28639"></path><path d="M341.3504 585.1648h48.7424v48.7424h-48.7424z" fill="#DD75A1" p-id="28640"></path><path d="M341.3504 536.3712h48.7424v48.7936h-48.7424z" fill="#012777" p-id="28641"></path><path d="M341.3504 487.6288h48.7424v48.7424h-48.7424z" fill="#DEE6FC" p-id="28642"></path><path d="M341.3504 438.8352h48.7424v48.7936h-48.7424z" fill="#DD75A1" p-id="28643"></path><path d="M341.3504 390.0928h48.7424v48.7424h-48.7424z" fill="#DEE6FC" p-id="28644"></path><path d="M341.3504 341.3504h48.7424v48.7424h-48.7424z" fill="#012777" p-id="28645"></path><path d="M341.3504 292.5568h48.7424v48.7936h-48.7424z" fill="#DD75A1" p-id="28646"></path><path d="M341.3504 243.8144h48.7424v48.7424h-48.7424z" fill="#DEE6FC" p-id="28647"></path><path d="M341.3504 195.072h48.7424v48.7424h-48.7424zM292.5568 926.464h48.7936v48.7936h-48.7936z" fill="#012777" p-id="28648"></path><path d="M292.5568 877.7216h48.7936v48.7424h-48.7936zM292.5568 828.928h48.7936v48.7936h-48.7936zM292.5568 780.1856h48.7936v48.7424h-48.7936z" fill="#375AA4" p-id="28649"></path><path d="M292.5568 731.4432h48.7936v48.7424h-48.7936z" fill="#A2D8EA" p-id="28650"></path><path d="M292.5568 682.6496h48.7936v48.7936h-48.7936z" fill="#012777" p-id="28651"></path><path d="M292.5568 633.9072h48.7936v48.7424h-48.7936z" fill="#DEE6FC" p-id="28652"></path><path d="M292.5568 585.1648h48.7936v48.7424h-48.7936z" fill="#DD75A1" p-id="28653"></path><path d="M292.5568 536.3712h48.7936v48.7936h-48.7936z" fill="#012777" p-id="28654"></path><path d="M292.5568 487.6288h48.7936v48.7424h-48.7936z" fill="#DEE6FC" p-id="28655"></path><path d="M292.5568 438.8352h48.7936v48.7936h-48.7936z" fill="#DD75A1" p-id="28656"></path><path d="M292.5568 390.0928h48.7936v48.7424h-48.7936z" fill="#DEE6FC" p-id="28657"></path><path d="M292.5568 341.3504h48.7936v48.7424h-48.7936z" fill="#012777" p-id="28658"></path><path d="M292.5568 292.5568h48.7936v48.7936h-48.7936z" fill="#DD75A1" p-id="28659"></path><path d="M292.5568 243.8144h48.7936v48.7424h-48.7936z" fill="#DEE6FC" p-id="28660"></path><path d="M292.5568 195.072h48.7936v48.7424h-48.7936zM243.8144 926.464h48.7424v48.7936h-48.7424z" fill="#012777" p-id="28661"></path><path d="M243.8144 877.7216h48.7424v48.7424h-48.7424zM243.8144 828.928h48.7424v48.7936h-48.7424z" fill="#375AA4" p-id="28662"></path><path d="M243.8144 780.1856h48.7424v48.7424h-48.7424z" fill="#A2D8EA" p-id="28663"></path><path d="M243.8144 731.4432h48.7424v48.7424h-48.7424z" fill="#A2D8EA" p-id="28664"></path><path d="M243.8144 682.6496h48.7424v48.7936h-48.7424z" fill="#012777" p-id="28665"></path><path d="M243.8144 633.9072h48.7424v48.7424h-48.7424z" fill="#DEE6FC" p-id="28666"></path><path d="M243.8144 585.1648h48.7424v48.7424h-48.7424z" fill="#DD75A1" p-id="28667"></path><path d="M243.8144 536.3712h48.7424v48.7936h-48.7424z" fill="#012777" p-id="28668"></path><path d="M243.8144 487.6288h48.7424v48.7424h-48.7424zM243.8144 438.8352h48.7424v48.7936h-48.7424zM243.8144 390.0928h48.7424v48.7424h-48.7424z" fill="#DEE6FC" p-id="28669"></path><path d="M243.8144 341.3504h48.7424v48.7424h-48.7424z" fill="#012777" p-id="28670"></path><path d="M243.8144 292.5568h48.7424v48.7936h-48.7424z" fill="#DD75A1" p-id="28671"></path><path d="M243.8144 243.8144h48.7424v48.7424h-48.7424z" fill="#DEE6FC" p-id="28672"></path><path d="M243.8144 195.072h48.7424v48.7424h-48.7424zM195.072 926.464h48.7424v48.7936H195.072z" fill="#012777" p-id="28673"></path><path d="M195.072 877.7216h48.7424v48.7424H195.072z" fill="#375AA4" p-id="28674"></path><path d="M195.072 828.928h48.7424v48.7936H195.072zM195.072 780.1856h48.7424v48.7424H195.072z" fill="#A2D8EA" p-id="28675"></path><path d="M195.072 731.4432h48.7424v48.7424H195.072z" fill="#A2D8EA" p-id="28676"></path><path d="M195.072 682.6496h48.7424v48.7936H195.072z" fill="#012777" p-id="28677"></path><path d="M195.072 633.9072h48.7424v48.7424H195.072z" fill="#DEE6FC" p-id="28678"></path><path d="M195.072 585.1648h48.7424v48.7424H195.072zM195.072 536.3712h48.7424v48.7936H195.072z" fill="#DD75A1" p-id="28679"></path><path d="M195.072 487.6288h48.7424v48.7424H195.072zM195.072 438.8352h48.7424v48.7936H195.072zM195.072 390.0928h48.7424v48.7424H195.072z" fill="#012777" p-id="28680"></path><path d="M195.072 341.3504h48.7424v48.7424H195.072zM195.072 292.5568h48.7424v48.7936H195.072z" fill="#DD75A1" p-id="28681"></path><path d="M195.072 243.8144h48.7424v48.7424H195.072z" fill="#DEE6FC" p-id="28682"></path><path d="M195.072 195.072h48.7424v48.7424H195.072zM146.2784 877.7216h48.7936v48.7424h-48.7936zM146.2784 828.928h48.7936v48.7936h-48.7936zM146.2784 780.1856h48.7936v48.7424h-48.7936z" fill="#012777" p-id="28683"></path><path d="M146.2784 731.4432h48.7936v48.7424h-48.7936zM146.2784 682.6496h48.7936v48.7936h-48.7936z" fill="#012777" p-id="28684"></path><path d="M146.2784 633.9072h48.7936v48.7424h-48.7936z" fill="#DEE6FC" p-id="28685"></path><path d="M146.2784 585.1648h48.7936v48.7424h-48.7936zM146.2784 536.3712h48.7936v48.7936h-48.7936zM146.2784 487.6288h48.7936v48.7424h-48.7936zM146.2784 438.8352h48.7936v48.7936h-48.7936zM146.2784 390.0928h48.7936v48.7424h-48.7936zM146.2784 341.3504h48.7936v48.7424h-48.7936zM146.2784 292.5568h48.7936v48.7936h-48.7936z" fill="#DD75A1" p-id="28686"></path><path d="M146.2784 243.8144h48.7936v48.7424h-48.7936z" fill="#DEE6FC" p-id="28687"></path><path d="M146.2784 195.072h48.7936v48.7424h-48.7936zM97.536 682.6496h48.7424v48.7936h-48.7424z" fill="#012777" p-id="28688"></path><path d="M97.536 633.9072h48.7424v48.7424h-48.7424zM97.536 585.1648h48.7424v48.7424h-48.7424zM97.536 536.3712h48.7424v48.7936h-48.7424zM97.536 487.6288h48.7424v48.7424h-48.7424zM97.536 438.8352h48.7424v48.7936h-48.7424zM97.536 390.0928h48.7424v48.7424h-48.7424zM97.536 341.3504h48.7424v48.7424h-48.7424zM97.536 292.5568h48.7424v48.7936h-48.7424zM97.536 243.8144h48.7424v48.7424h-48.7424z" fill="#DEE6FC" p-id="28689"></path><path d="M97.536 195.072h48.7424v48.7424h-48.7424zM48.7424 633.9072h48.7936v48.7424H48.7424zM48.7424 585.1648h48.7936v48.7424H48.7424zM48.7424 536.3712h48.7936v48.7936H48.7424zM48.7424 487.6288h48.7936v48.7424H48.7424zM48.7424 438.8352h48.7936v48.7936H48.7424zM48.7424 390.0928h48.7936v48.7424H48.7424zM48.7424 341.3504h48.7936v48.7424H48.7424zM48.7424 292.5568h48.7936v48.7936H48.7424zM48.7424 243.8144h48.7936v48.7424H48.7424z" fill="#012777" p-id="28690"></path></svg>